#!OML:ASF X:\für Bonn\!DataBase\2005_08_10_Bjorn_Final\c3d\bjorn.ASF
:FULLY-SPECIFIED
:DEGREES
184
root 0.988001 5.46396 19.5953 -409.032 -179.61 -8.91293
lowerback 45.0219 -13.0578 0.546106
upperback 25.5102 -2.53503 -4.00008
thorax 7.60372 5.21039 -3.01384
lowerneck -4.60256 6.10795 19.8231
upperneck -2.80463 7.36394 -12.6842
head 1.13328 3.58296 -6.83671
rclavicle 2.8625e-014 -7.95139e-015
rhumerus -219.427 -133.922 108.577
rradius 22.6378
rwrist -14.7817
rhand -25.3878 3.75451
rfingers 7.12502
rthumb 1.137 -26.2222
lclavicle 2.8625e-014 -7.95139e-015
lhumerus -489.228 59.3646 -405.704
lradius 9.88424
lwrist -90.5507
lhand -24.2574 -7.34865
lfingers 7.12502
lthumb 2.22881 22.6195
rfemur -122.856 -128.463 27.8014
rtibia 153.866
rfoot -73.656 39.6267
rtoes -12.0779
lfemur -56.7714 44.6997 14.482
ltibia 144.211
lfoot -30.6832 -23.6999
ltoes -20.1116
185
root 1.00741 5.46072 19.6252 -409.368 -179.272 -8.80546
lowerback 44.8783 -12.6643 0.629715
upperback 25.4593 -1.98648 -4.03367
thorax 7.60902 5.52483 -3.25803
lowerneck -4.67629 6.12107 19.3179
upperneck -2.58923 7.0682 -12.452
head 1.14665 3.22909 -6.69531
rclavicle 5.725e-014 3.02153e-014
rhumerus -220.24 -133.84 108.556
rradius 22.3031
rwrist -15.6606
rhand -25.2932 3.49444
rfingers 7.12502
rthumb 1.22835 -26.4818
lclavicle 5.725e-014 3.02153e-014
lhumerus -484.395 61.2009 -399.971
lradius 9.79069
lwrist -85.9148
lhand -24.0542 -7.09519
lfingers 7.12502
lthumb 2.42502 22.8708
rfemur -123.267 -128.303 28.4153
rtibia 153.714
rfoot -73.2562 39.616
rtoes -12.1831
lfemur -56.8914 43.9613 14.0496
ltibia 143.986
lfoot -30.3243 -23.739
ltoes -20.2875
186
root 1.02536 5.45787 19.6542 -409.707 -178.952 -8.69338
lowerback 44.7308 -12.2976 0.754017
upperback 25.4287 -1.43706 -4.08891
thorax 7.64036 5.85563 -3.54246
lowerneck -4.67866 5.89247 18.909
upperneck -2.50891 6.794 -12.2869
head 1.10682 3.10599 -6.59252
rclavicle 5.1684e-014 -1.11319e-014
rhumerus -221.012 -133.676 108.512
rradius 21.9551
rwrist -16.5884
rhand -25.151 3.31716
rfingers 7.12502
rthumb 1.36573 -26.6582
lclavicle 5.1684e-014 -1.11319e-014
lhumerus -478.89 62.8408 -393.645
lradius 9.68918
lwrist -81.6152
lhand -23.971 -7.4734
lfingers 7.12502
lthumb 2.50539 22.4916
rfemur -123.705 -128.14 29.0589
rtibia 153.559
rfoot -72.9045 39.6158
rtoes -12.2662
lfemur -56.9058 43.3403 13.7399
ltibia 143.754
lfoot -29.9985 -23.876
ltoes -20.2807
187
root 1.04228 5.45653 19.6846 -410.025 -178.616 -8.58706
lowerback 44.6008 -11.9327 0.85673
upperback 25.3931 -0.8922 -4.12894
thorax 7.66834 6.18068 -3.79771
lowerneck -4.72166 5.71933 18.4946
upperneck -2.32443 6.5972 -12.2089
head 1.12112 3.02311 -6.50901
rclavicle 2.22639e-014 3.18055e-014
rhumerus -221.764 -133.438 108.546
rradius 21.5484
rwrist -17.354
rhand -24.9847 3.16741
rfingers 7.12502
rthumb 1.52639 -26.8069
lclavicle 2.22639e-014 3.18055e-014
lhumerus -472.681 64.052 -386.594
lradius 9.67286
lwrist -77.4254
lhand -24.0217 -8.71909
lfingers 7.12502
lthumb 2.45643 21.2465
rfemur -124.191 -127.906 29.7173
rtibia 153.41
rfoot -72.4901 39.7747
rtoes -12.1517
lfemur -57.0382 42.5838 13.2608
ltibia 143.519
lfoot -29.6422 -23.8578
ltoes -20.5956
188
root 1.05662 5.45539 19.7147 -410.337 -178.252 -8.48902
lowerback 44.4693 -11.598 0.984312
upperback 25.3751 -0.352134 -4.2056
thorax 7.71983 6.52145 -4.09969
lowerneck -4.71088 5.52228 18.2781
upperneck -2.2245 6.36194 -12.2576
head 1.10838 2.91667 -6.50217
rclavicle 3.33958e-014 2.70347e-014
rhumerus -222.543 -132.937 108.675
rradius 21.0777
rwrist -17.8799
rhand -24.726 3.043
rfingers 7.12502
rthumb 1.77623 -26.9294
lclavicle 3.33958e-014 2.70347e-014
lhumerus -465.859 64.8947 -378.947
lradius 9.77397
lwrist -73.4907
lhand -24.091 -9.74387
lfingers 7.12502
lthumb 2.38948 20.2225
rfemur -124.685 -127.674 30.3216
rtibia 153.247
rfoot -72.08 39.9814
rtoes -11.9822
lfemur -57.1462 41.8541 12.7397
ltibia 143.295
lfoot -29.3439 -23.6778
ltoes -20.8795
189
root 1.06982 5.45886 19.745 -410.623 -177.907 -8.39608
lowerback 44.3359 -11.2685 1.11843
upperback 25.3613 0.188804 -4.26525
thorax 7.78255 6.86263 -4.38481
lowerneck -4.68419 5.31621 17.969
upperneck -2.14589 6.11884 -12.2454
head 1.08075 2.80625 -6.46154
rclavicle -1.35174e-014 2.38542e-014
rhumerus -223.225 -132.556 108.719
rradius 20.6521
rwrist -18.5229
rhand -24.4748 2.84139
rfingers 7.12502
rthumb 2.01882 -27.1288
lclavicle -1.35174e-014 2.38542e-014
lhumerus -458.781 65.3516 -370.973
lradius 10.0004
lwrist -69.8103
lhand -24.0115 -10.4337
lfingers 7.12502
lthumb 2.46622 19.5318
rfemur -125.148 -127.489 30.9193
rtibia 153.059
rfoot -71.7747 40.1717
rtoes -11.8824
lfemur -57.2449 41.1178 12.1957
ltibia 143.059
lfoot -29.0995 -23.3993
ltoes -21.3706
190
root 1.08068 5.46822 19.7763 -410.903 -177.575 -8.2966
lowerback 44.2166 -10.9585 1.28485
upperback 25.3445 0.723255 -4.31049
thorax 7.84194 7.20457 -4.6678
lowerneck -4.62325 5.093 17.6174
upperneck -2.07506 5.85929 -12.1971
head 1.0409 2.68851 -6.4036
rclavicle -2.3059e-014 -1.43125e-014
rhumerus -223.891 -132.266 108.727
rradius 20.3068
rwrist -19.2615
rhand -24.2454 2.63015
rfingers 7.12502
rthumb 2.24038 -27.3378
lclavicle -2.3059e-014 -1.43125e-014
lhumerus -445.626 65.4062 -356.336
lradius 10.2959
lwrist -63.437
lhand -23.7891 -10.4135
lfingers 7.12502
lthumb 2.681 19.5494
rfemur -125.653 -127.19 31.6267
rtibia 152.817
rfoot -71.3352 40.5195
rtoes -11.4613
lfemur -57.2696 40.3267 11.6367
ltibia 142.791
lfoot -28.8531 -23.086
ltoes -21.7793
191
root 1.09067 5.47717 19.8076 -411.148 -177.228 -8.20489
lowerback 44.0898 -10.6507 1.44658
upperback 25.3146 1.24454 -4.35807
thorax 7.89126 7.53504 -4.94774
lowerneck -4.55939 4.87975 17.2814
upperneck -1.9845 5.61217 -12.0898
head 1.00721 2.5771 -6.32777
rclavicle -3.97569e-015 -2.8625e-014
rhumerus -224.558 -131.984 108.732
rradius 19.9934
rwrist -19.9655
rhand -23.9369 2.40151
rfingers 7.12502
rthumb 2.53833 -27.5631
lclavicle -3.97569e-015 -2.8625e-014
lhumerus -434.572 64.3874 -344.034
lradius 10.6305
lwrist -57.5475
lhand -23.4329 -10.2706
lfingers 7.12502
lthumb 3.02504 19.6877
rfemur -126.145 -126.83 32.3032
rtibia 152.595
rfoot -70.9054 40.8278
rtoes -11.2193
lfemur -57.3657 39.5549 11.015
ltibia 142.543
lfoot -28.6298 -22.7569
ltoes -22.2708
192
root 1.0986 5.47891 19.8383 -411.407 -176.89 -8.10078
lowerback 43.9929 -10.3544 1.60407
upperback 25.2888 1.76477 -4.39546
thorax 7.94372 7.86905 -5.21256
lowerneck -4.6101 4.6835 16.9484
upperneck -1.73878 5.3779 -11.9401
head 1.03889 2.47231 -6.23357
rclavicle -4.69132e-014 -1.27222e-014
rhumerus -225.137 -131.857 108.582
rradius 19.7891
rwrist -20.8855
rhand -23.6879 2.1464
rfingers 7.12502
rthumb 2.77878 -27.8152
lclavicle -4.69132e-014 -1.27222e-014
lhumerus -426.736 63.0664 -335.311
lradius 10.8868
lwrist -52.6216
lhand -23.1618 -10.1699
lfingers 7.12502
lthumb 3.28683 19.7845
rfemur -126.664 -126.414 32.9906
rtibia 152.4
rfoot -70.3713 41.1669
rtoes -11.0132
lfemur -57.4922 38.8701 10.4351
ltibia 142.339
lfoot -28.4397 -22.4463
ltoes -22.8536
193
root 1.10391 5.47404 19.868 -411.66 -176.579 -8.0156
lowerback 43.9082 -10.0441 1.73407
upperback 25.2717 2.30002 -4.39078
thorax 8.0101 8.20432 -5.41938
lowerneck -4.62601 4.48711 16.4785
upperneck -1.51294 5.15387 -11.7199
head 1.05599 2.37354 -6.095
rclavicle -1.90833e-014 5.88403e-014
rhumerus -225.649 -131.747 108.443
rradius 19.6478
rwrist -21.7809
rhand -23.3664 1.87713
rfingers 7.12502
rthumb 3.08922 -28.0802
lclavicle -1.90833e-014 5.88403e-014
lhumerus -420.751 61.6318 -328.573
lradius 11.0943
lwrist -48.318
lhand -23.0288 -10.0361
lfingers 7.12502
lthumb 3.41525 19.9163
rfemur -127.142 -125.964 33.5666
rtibia 152.247
rfoot -69.7634 41.5855
rtoes -10.6683
lfemur -57.6624 38.2797 9.91215
ltibia 142.18
lfoot -28.1256 -22.3686
ltoes -23.0859
194
root 1.10738 5.46784 19.8972 -411.907 -176.242 -7.92195
lowerback 43.8218 -9.75872 1.84486
upperback 25.2631 2.80234 -4.36519
thorax 8.08619 8.52031 -5.58099
lowerneck -4.55027 4.29671 15.9201
upperneck -1.32608 4.95435 -11.4788
head 1.04905 2.28872 -5.93619
rclavicle -1.27222e-014 -9.54166e-015
rhumerus -226.152 -131.617 108.368
rradius 19.5403
rwrist -22.5715
rhand -23.0778 1.52991
rfingers 7.12502
rthumb 3.36798 -28.4232
lclavicle -1.27222e-014 -9.54166e-015
lhumerus -416.523 60.3787 -323.752
lradius 11.2727
lwrist -44.7996
lhand -22.8891 -10.0177
lfingers 7.12502
lthumb 3.55015 19.9324
rfemur -127.651 -125.427 34.1543
rtibia 152.098
rfoot -69.0597 42.0027
rtoes -10.3421
lfemur -57.839 37.7259 9.35081
ltibia 142.037
lfoot -27.8381 -22.3539
ltoes -23.2205
195
root 1.10965 5.46108 19.9275 -412.131 -175.925 -7.80642
lowerback 43.1029 3.76 14.485
upperback 25.7104 -2.41964 1.67732
thorax 9.52587 -4.87873 -5.70323
lowerneck -4.4595 4.09882 15.3743
upperneck -1.10544 4.74719 -11.2266
head 1.05011 2.20056 -5.77601
rclavicle -1.51076e-014 5.40694e-014
rhumerus -226.639 -131.425 108.325
rradius 19.4365
rwrist -23.3282
rhand -22.7768 1.19899
rfingers 7.12502
rthumb 3.65861 -28.7494
lclavicle -1.51076e-014 5.40694e-014
lhumerus -413.776 59.5218 -320.667
lradius 11.3959
lwrist -42.27
lhand -22.8468 -10.1261
lfingers 7.12502
lthumb 3.59107 19.8234
rfemur -128.147 -124.765 34.8249
rtibia 151.94
rfoot -68.1971 42.3981
rtoes -10.0962
lfemur -58.064 37.1701 8.8037
ltibia 141.896
lfoot -27.5018 -22.492
ltoes -23.186
196
root 1.1101 5.453 19.9573 -412.369 -175.605 -7.71165
lowerback 43.0924 4.02285 14.6266
upperback 25.733 -1.91944 1.7192
thorax 9.63228 -4.55689 -5.86335
lowerneck -4.30865 3.89815 14.8211
upperneck -0.886226 4.54388 -10.9755
head 1.04309 2.11516 -5.61564
rclavicle 8.34896e-015 2.06736e-014
rhumerus -227.207 -131.051 108.467
rradius 19.3009
rwrist -23.8926
rhand -22.4561 0.883631
rfingers 7.12502
rthumb 3.96833 -29.0592
lclavicle 8.34896e-015 2.06736e-014
lhumerus -411.812 58.956 -318.532
lradius 11.4642
lwrist -40.3504
lhand -22.9136 -10.3579
lfingers 7.12502
lthumb 3.52655 19.5927
rfemur -128.709 -124.053 35.5328
rtibia 151.783
rfoot -67.371 42.6942
rtoes -10.0296
lfemur -58.2953 36.6034 8.21859
ltibia 141.77
lfoot -27.109 -22.6253
ltoes -23.1462
